<svg id="Layer_1" data-name="Layer 1" xmlns="http://www.w3.org/2000/svg" viewBox="0 0 1212.16 621.39"><defs><style>.cls-1{fill:none;stroke:#ff0;stroke-miterlimit:10;stroke-width:4px;}</style></defs><path class="cls-1" d="M1092.94,78.85s89.92-41.71,121.93,12.64-11.44,126.35-50.07,123.83-83.26-61.53-21.69-90.56,105.67-16.09,128.73,17,.25,75.59.25,75.59" transform="translate(-72 -61.56)"/><path class="cls-1" d="M150,228c-58-38-25.15-83.12,18.43-87.56S211,187,201,199s-89.64-6.67-92.32-58.83S145,80,173,73" transform="translate(-72 -61.56)"/><polygon class="cls-1" points="104.19 597.63 68.08 591.08 42.2 617.11 37.27 580.74 4.52 564.17 37.59 548.25 43.22 511.97 68.59 538.51 104.83 532.65 87.43 564.98 104.19 597.63"/></svg>