<svg id="Layer_1" data-name="Layer 1" xmlns="http://www.w3.org/2000/svg" viewBox="0 0 1183.65 671.94"><defs><style>.cls-1{fill:none;stroke:#000;stroke-miterlimit:10;stroke-width:4px;opacity:0.18;}</style></defs><circle class="cls-1" cx="178.23" cy="554.94" r="115"/><path class="cls-1" d="M125.8,617.36c-19.83,9.46-31,17.75-29.56,23.15s15.87,7.11,38.6,5.27c28.89-2.33,71.26-10.2,117.71-22.57,39.8-10.59,75.35-22.57,101.21-33.54,28.08-11.92,44.74-22.65,43-29.18S376,553,346.61,556.37c-.61.06-1.22.14-1.83.22" transform="translate(-60.77 -42.06)"/><path class="cls-1" d="M125.61,616.21C85.23,632.4,60.6,647.3,62.92,656c2.41,9.05,33.26,9.44,79,2.67,31.62-4.67,70.37-12.77,111.76-23.79,37.47-10,71.86-20.95,100.12-31.6,48.13-18.13,78.46-35.3,75.89-44.95-2.48-9.32-35.12-9.46-83.13-2.06l-1.8.29" transform="translate(-60.77 -42.06)"/><polygon class="cls-1" points="1179.99 120.34 1130.63 111.88 1095.68 147.74 1088.48 98.18 1043.57 76.02 1088.48 53.85 1095.68 4.3 1130.63 40.16 1179.99 31.69 1156.69 76.02 1179.99 120.34"/></svg>